<svg xmlns="http://www.w3.org/2000/svg" viewBox="0 0 828.34 201"><defs><style>.cls-1{fill:#fefefe;}.cls-2{fill:#5f6d97;}.cls-3{fill:#feca01;}.cls-4{fill:#444343;}.cls-5{fill:#434242;}.cls-6{fill:#fe3e58;}.cls-7{fill:#fdfdfd;}.cls-8{fill:#fcfcfc;}.cls-9{fill:#fbfbfb;}</style></defs><g id="Layer_2" data-name="Layer 2"><g id="Layer_1-2" data-name="Layer 1"><path class="cls-1" d="M414.17,200.94q-205.65,0-411.3.06C.53,201,0,200.47,0,198.13Q.11,100.35,0,2.55C0,.42.42,0,2.56,0Q414.18.09,825.79,0c2.13,0,2.56.42,2.55,2.55q-.11,97.95,0,195.9c0,2.13-.41,2.55-2.55,2.55Q620,200.9,414.17,200.94Zm-308-142.45c1-14.92-14.49-28.09-29.92-23.61-7.29,2.11-12,6.69-15.87,13C46.94,69.48,33.24,91,19.64,112.48a26.51,26.51,0,0,0-4.56,13.11c-.5,12.22,8.73,23.32,20.76,24.88,9.39,1.22,16.84-1.83,22.47-9.3,4.49-5.95,8-12.51,12-18.81,10.41-16.56,20.93-33,31.35-49.6C104.44,68.31,106.77,63.65,106.14,58.49Zm73.81.07c0-11.09-6.65-20-16.79-23.11a23.33,23.33,0,0,0-26.7,9.77q-21.79,34.47-43.31,69.15a23.67,23.67,0,0,0,40.22,25c14.43-22.81,28.7-45.72,43-68.6A21.57,21.57,0,0,0,180,58.56ZM619.4,75.49c-.85-.75-1.16-1-1.4-1.25C606.9,62,586.48,62.47,574.81,71.93c-8.67,7-12.7,16.52-13.92,27.27-1.45,12.86-.11,25.25,7,36.57,12.16,19.46,40.64,19.74,51.82,4.48a1,1,0,0,1,1.26-.51c0,2.36.11,4.81,0,7.25-.11,1.82.59,2.26,2.3,2.22,5.09-.1,10.19-.16,15.28,0,2.29.08,2.68-.73,2.67-2.81-.1-12.26,0-24.52,0-36.78,0-23.69,0-47.38.06-71.06,0-2.49-.68-3.12-3.08-3-5,.19-10,.24-15,0-2.91-.15-3.86.51-3.81,3.65C619.52,51,619.4,62.87,619.4,75.49ZM439.53,115c8.73,0,17.47-.09,26.19.06,2.4,0,3.09-.69,2.91-3-.28-3.52-.21-7.06-.44-10.58-1.36-20.45-14-33.84-34.3-36.34-18.63-2.31-35.11,7.25-41.73,24.57a53.21,53.21,0,0,0,.07,38.67c4,10.6,11.75,17.48,22.58,20.64a50.81,50.81,0,0,0,28.3.15c10.87-3,18.54-9.82,23.17-20.11.83-1.85,1.35-3-1.61-3.32-5.66-.63-11.28-1.72-16.9-2.68-1.28-.22-2.08-.09-2.68,1.27-4.08,9.21-13,11-20.85,9.61-7.07-1.27-11.53-7.2-13.14-16.34-.39-2.18.14-2.67,2.24-2.65C422.07,115.07,430.8,115,439.53,115Zm339.82,9.59a2.08,2.08,0,0,1-.31-.44c-5.4-18.41-12.32-36.32-18.2-54.57-.67-2.09-1.57-2.94-3.9-2.86-5.71.2-11.44.22-17.15,0-2.95-.11-2.88.82-2,3.1,9.72,25.26,19.32,50.55,29.07,75.79a8.82,8.82,0,0,1-.05,7.1c-4.71,11.48-8.09,13.46-20.23,11.22-1.41-.26-1.75,0-2,1.31-.88,4.37-1.86,8.72-2.9,13.06-.36,1.52.16,2,1.61,2.19,3.29.44,6.54,1.35,9.84,1.53,16.78.93,24-4.41,29.75-15.62.8-1.57,1.71-3.09,2.37-4.72,12.56-30.71,23.41-62.07,35.3-93,.66-1.72,0-1.89-1.48-1.88-5.93,0-11.86.13-17.78,0-2-.06-2.88.66-3.47,2.52-5.72,18.08-12.33,35.88-17.62,54.11C780,123.88,779.92,124.39,779.35,124.61Zm-44.93,24.57c-5.53-9.15-4.94-19-5-28.72,0-10.29.41-20.58-.34-30.86-.91-12.64-7.72-20.66-20.05-23.29a62.71,62.71,0,0,0-26.62-.06c-11.16,2.43-18.68,9-22.29,19.93-.71,2.16-.13,2.73,1.83,3,5.15.7,10.28,1.47,15.42,2.26,1,.16,1.79.38,2.28-.83,3.23-7.93,9.67-9.56,17.35-8.85,7.14.67,10.64,4.44,10.75,11.57,0,1.6-.39,2.4-2,2.85a145.48,145.48,0,0,1-14.3,3.06c-7.47,1.26-15,2.39-21.75,6.15-9.15,5.1-12.62,13.11-11.83,23.21.74,9.43,5.45,16.21,14.16,20,6.7,2.9,13.69,3.09,20.78,1.5C699.46,148.57,705,145,710,140.3c.75,2.54,1.44,4.79,2.08,7.06a2.12,2.12,0,0,0,2.39,1.85C720.93,149.14,727.37,149.18,734.42,149.18ZM351.8,138.45c0,3.42.11,6,0,8.52-.1,1.81.56,2.27,2.29,2.24,5.3-.1,10.61-.09,15.91,0,1.6,0,2.11-.39,2.11-2.07q-.07-39.12,0-78.24c0-1.94-.77-2.14-2.38-2.12-5.4.08-10.82.22-16.21,0-2.86-.14-3.36.79-3.34,3.43.12,15.07.14,30.14,0,45.2-.11,9.61-4.84,16.37-12.4,18.46-9.34,2.58-15.9-1.83-16.93-11.45a58.59,58.59,0,0,1-.34-6.21c0-15.59-.05-31.17,0-46.76,0-2-.39-2.7-2.53-2.64-5.61.15-11.22.08-16.84,0-1.4,0-2.28,0-2.27,1.92.1,19.53-.22,39.07.28,58.59.25,10.07,5.16,17.93,15,21.65A34.17,34.17,0,0,0,334.7,150C341.5,148.36,346.9,144.55,351.8,138.45Zm-81.36-36.29c0-14.77.07-29.53-.06-44.29,0-2.5.7-3.11,3.12-3.07,9.15.14,18.31,0,27.46.1,1.87,0,2.53-.42,2.48-2.4-.15-5-.1-10,0-15,0-1.48-.4-1.94-1.92-1.94q-42.27.06-84.55,0c-1.62,0-2.15.45-2.12,2.1.1,4.89.14,9.78,0,14.66-.07,2.15.73,2.56,2.69,2.54,8.94-.09,17.89.11,26.82-.12,3-.07,3.5.93,3.49,3.65-.09,29.21,0,58.42-.09,87.63,0,2.18.19,3.32,2.91,3.2,5.71-.25,11.44-.19,17.15,0,2.26.07,2.71-.68,2.7-2.79C270.4,131.68,270.44,116.92,270.44,102.16ZM514.11,64.91c-6.44.07-12.52.76-18.25,3.18C487,71.85,481.51,78.24,481,88.15s3.08,17.85,11.83,23.09A50.46,50.46,0,0,0,508,116.78c5.16,1.17,10.51,1.45,15.48,3.42,2.83,1.13,5.19,2.64,5.33,6.15.14,3.75-1.86,6-5,7.52-10.12,4.83-20.64.59-24.44-9.87-.41-1.12-.75-1.68-2.17-1.42-5.51,1-11,2-16.6,2.68-2.1.27-2,1.22-1.65,2.69,2,8.36,6.53,14.71,14.26,18.65a43.05,43.05,0,0,0,16.8,4.23c10.49.75,20.63-.33,29.42-6.76,7.87-5.75,11.12-13.76,10.38-23.37-.75-9.77-6.36-15.89-15.11-19.55a78.42,78.42,0,0,0-16.49-4.47c-4.49-.81-9-1.58-13-4-4.16-2.47-4.51-7.35-.82-10,7-5.1,18.62-2.12,22.07,5.68.47,1.06.82,1.67,2.2,1.45q8.46-1.36,17-2.48c1.91-.25,2-1,1.55-2.72a23.73,23.73,0,0,0-12.69-15.37C527.94,65.92,521,65.08,514.11,64.91ZM187.74,150.69c13.44-.43,24.16-11.25,23.68-23.9a24,24,0,0,0-24.58-23c-13.5.42-23.85,11.2-23.43,24.41C163.81,140.78,175,151.1,187.74,150.69Z"/><path class="cls-2" d="M106.14,58.49c.63,5.16-1.7,9.82-4.5,14.27-10.42,16.56-20.94,33-31.35,49.6-4,6.3-7.49,12.86-12,18.81-5.63,7.47-13.08,10.52-22.47,9.3-12-1.56-21.26-12.66-20.76-24.88a26.51,26.51,0,0,1,4.56-13.11c13.6-21.53,27.3-43,40.71-64.64,3.89-6.27,8.58-10.85,15.87-13C91.65,30.4,107.15,43.57,106.14,58.49Z"/><path class="cls-3" d="M180,58.56a21.57,21.57,0,0,1-3.57,12.19c-14.31,22.88-28.58,45.79-43,68.6a23.67,23.67,0,0,1-40.22-25q21.45-34.71,43.31-69.15a23.33,23.33,0,0,1,26.7-9.77C173.3,38.55,179.92,47.47,180,58.56Z"/><path class="cls-4" d="M619.4,75.49c0-12.62.12-24.46-.09-36.29,0-3.14.9-3.8,3.81-3.65,5,.25,10,.2,15,0,2.4-.09,3.09.54,3.08,3-.1,23.68-.06,47.37-.06,71.06,0,12.26-.05,24.52,0,36.78,0,2.08-.38,2.89-2.67,2.81-5.09-.19-10.19-.13-15.28,0-1.71,0-2.41-.4-2.3-2.22.15-2.44,0-4.89,0-7.25a1,1,0,0,0-1.26.51c-11.18,15.26-39.66,15-51.82-4.48-7.08-11.32-8.42-23.71-7-36.57,1.22-10.75,5.25-20.24,13.92-27.27,11.67-9.46,32.09-10,43.19,2.31C618.24,74.52,618.55,74.74,619.4,75.49Zm.23,32.91c-.1-6.16-.88-12.31-4.32-17.77S606.87,82,600,82.34c-6.58.36-11.29,3.59-13.94,9.4a38.36,38.36,0,0,0-.29,32.27c2.79,6.45,8.06,9.77,15.32,9.65,7.43-.12,12.59-3.55,15.66-10.25C618.94,118.68,619.36,113.63,619.63,108.4Z"/><path class="cls-4" d="M439.53,115c-8.73,0-17.46,0-26.19,0-2.1,0-2.63.47-2.24,2.65,1.61,9.14,6.07,15.07,13.14,16.34,7.8,1.41,16.77-.4,20.85-9.61.6-1.36,1.4-1.49,2.68-1.27,5.62,1,11.24,2,16.9,2.68,3,.33,2.44,1.47,1.61,3.32-4.63,10.29-12.3,17.08-23.17,20.11a50.81,50.81,0,0,1-28.3-.15c-10.83-3.16-18.61-10-22.58-20.64a53.21,53.21,0,0,1-.07-38.67c6.62-17.32,23.1-26.88,41.73-24.57,20.29,2.5,32.94,15.89,34.3,36.34.23,3.52.16,7.06.44,10.58.18,2.3-.51,3-2.91,3C457,114.93,448.26,115,439.53,115ZM428.91,99.25c5.29,0,10.58-.06,15.86,0,1.82,0,2.25-.44,1.91-2.3-1.8-10-7.94-15.44-17.58-15.38-9.25,0-16.2,6.13-17.86,15.41-.32,1.78-.09,2.32,1.81,2.27C418.34,99.18,423.62,99.25,428.91,99.25Z"/><path class="cls-4" d="M779.35,124.61c.57-.22.68-.73.83-1.23,5.29-18.23,11.9-36,17.62-54.11.59-1.86,1.42-2.58,3.47-2.52,5.92.17,11.85.09,17.78,0,1.45,0,2.14.16,1.48,1.88-11.89,31-22.74,62.33-35.3,93-.66,1.63-1.57,3.15-2.37,4.72-5.7,11.21-13,16.55-29.75,15.62-3.3-.18-6.55-1.09-9.84-1.53-1.45-.2-2-.67-1.61-2.19,1-4.34,2-8.69,2.9-13.06.27-1.33.61-1.57,2-1.31,12.14,2.24,15.52.26,20.23-11.22a8.82,8.82,0,0,0,.05-7.1c-9.75-25.24-19.35-50.53-29.07-75.79-.88-2.28-.95-3.21,2-3.1,5.71.21,11.44.19,17.15,0,2.33-.08,3.23.77,3.9,2.86,5.88,18.25,12.8,36.16,18.2,54.57A2.08,2.08,0,0,0,779.35,124.61Z"/><path class="cls-4" d="M734.42,149.18c-7,0-13.49,0-19.92,0a2.12,2.12,0,0,1-2.39-1.85c-.64-2.27-1.33-4.52-2.08-7.06-5.07,4.69-10.57,8.27-17.23,9.78-7.09,1.59-14.08,1.4-20.78-1.5-8.71-3.77-13.42-10.55-14.16-20-.79-10.1,2.68-18.11,11.83-23.21,6.77-3.76,14.28-4.89,21.75-6.15a145.48,145.48,0,0,0,14.3-3.06c1.65-.45,2.06-1.25,2-2.85-.11-7.13-3.61-10.9-10.75-11.57-7.68-.71-14.12.92-17.35,8.85-.49,1.21-1.31,1-2.28.83-5.14-.79-10.27-1.56-15.42-2.26-2-.27-2.54-.84-1.83-3,3.61-11,11.13-17.5,22.29-19.93a62.71,62.71,0,0,1,26.62.06C721.39,68.94,728.2,77,729.11,89.6c.75,10.28.3,20.57.34,30.86C729.48,130.21,728.89,140,734.42,149.18Zm-26.56-33.81h-.11a21.79,21.79,0,0,1,0-2.8c.36-2.73-.57-3-3.07-2.22-3.63,1.18-7.42,1.87-11.16,2.7-3.34.74-6.73,1.32-9.63,3.31-6.17,4.23-6,14.47.31,17.89,7,3.82,21.92-.28,22.95-11.44Z"/><path class="cls-5" d="M351.8,138.45c-4.9,6.1-10.3,9.91-17.1,11.58A34.17,34.17,0,0,1,314.17,149c-9.88-3.72-14.79-11.58-15-21.65-.5-19.52-.18-39.06-.28-58.59,0-1.87.87-1.93,2.27-1.92,5.62,0,11.23.12,16.84,0,2.14-.06,2.54.69,2.53,2.64-.07,15.59-.05,31.17,0,46.76a58.59,58.59,0,0,0,.34,6.21c1,9.62,7.59,14,16.93,11.45,7.56-2.09,12.29-8.85,12.4-18.46.16-15.06.14-30.13,0-45.2,0-2.64.48-3.57,3.34-3.43,5.39.27,10.81.13,16.21,0,1.61,0,2.38.18,2.38,2.12q-.1,39.12,0,78.24c0,1.68-.51,2.1-2.11,2.07-5.3-.09-10.61-.1-15.91,0-1.73,0-2.39-.43-2.29-2.24C351.91,144.42,351.8,141.87,351.8,138.45Z"/><path class="cls-5" d="M270.44,102.16c0,14.76,0,29.52.05,44.28,0,2.11-.44,2.86-2.7,2.79-5.71-.17-11.44-.23-17.15,0-2.72.12-2.92-1-2.91-3.2.05-29.21,0-58.42.09-87.63,0-2.72-.49-3.72-3.49-3.65-8.93.23-17.88,0-26.82.12-2,0-2.76-.39-2.69-2.54.15-4.88.11-9.77,0-14.66,0-1.65.5-2.1,2.12-2.1q42.29.06,84.55,0c1.52,0,1.94.46,1.92,1.94-.08,5-.13,10,0,15,.05,2-.61,2.41-2.48,2.4-9.15-.1-18.31,0-27.46-.1-2.42,0-3.14.57-3.12,3.07C270.51,72.63,270.44,87.39,270.44,102.16Z"/><path class="cls-4" d="M514.11,64.91c6.86.17,13.83,1,20.28,4.33a23.73,23.73,0,0,1,12.69,15.37c.46,1.67.36,2.47-1.55,2.72q-8.49,1.13-17,2.48c-1.38.22-1.73-.39-2.2-1.45-3.45-7.8-15.1-10.78-22.07-5.68-3.69,2.69-3.34,7.57.82,10,4,2.38,8.55,3.15,13,4a78.42,78.42,0,0,1,16.49,4.47c8.75,3.66,14.36,9.78,15.11,19.55.74,9.61-2.51,17.62-10.38,23.37-8.79,6.43-18.93,7.51-29.42,6.76a43.05,43.05,0,0,1-16.8-4.23c-7.73-3.94-12.31-10.29-14.26-18.65-.34-1.47-.45-2.42,1.65-2.69,5.56-.72,11.09-1.68,16.6-2.68,1.42-.26,1.76.3,2.17,1.42,3.8,10.46,14.32,14.7,24.44,9.87,3.14-1.5,5.14-3.77,5-7.52-.14-3.51-2.5-5-5.33-6.15-5-2-10.32-2.25-15.48-3.42a50.46,50.46,0,0,1-15.12-5.54C484.08,106,480.49,98.07,481,88.15s6-16.3,14.86-20.06C501.59,65.67,507.67,65,514.11,64.91Z"/><path class="cls-6" d="M187.74,150.69c-12.79.41-23.93-9.91-24.33-22.52-.42-13.21,9.93-24,23.43-24.41a24,24,0,0,1,24.58,23C211.9,139.44,201.18,150.26,187.74,150.69Z"/><path class="cls-7" d="M619.63,108.4c-.27,5.23-.69,10.28-2.86,15-3.07,6.7-8.23,10.13-15.66,10.25-7.26.12-12.53-3.2-15.32-9.65a38.36,38.36,0,0,1,.29-32.27c2.65-5.81,7.36-9,13.94-9.4,6.85-.37,11.78,2.69,15.29,8.29S619.53,102.24,619.63,108.4Z"/><path class="cls-8" d="M428.91,99.25c-5.29,0-10.57-.07-15.86,0-1.9,0-2.13-.49-1.81-2.27,1.66-9.28,8.61-15.36,17.86-15.41,9.64-.06,15.78,5.38,17.58,15.38.34,1.86-.09,2.33-1.91,2.3C439.49,99.19,434.2,99.25,428.91,99.25Z"/><path class="cls-9" d="M707.86,115.37l-.69,7.43c-1,11.16-15.9,15.26-22.95,11.44-6.32-3.42-6.48-13.66-.31-17.89,2.9-2,6.29-2.57,9.63-3.31,3.74-.83,7.53-1.52,11.16-2.7,2.5-.8,3.43-.51,3.07,2.22a21.79,21.79,0,0,0,0,2.8Z"/></g></g></svg>